<mxfile host="app.diagrams.net" agent="Mozilla/5.0 (Macintosh; Intel Mac OS X 10_15_7) AppleWebKit/537.36 (KHTML, like Gecko) Chrome/131.0.0.0 Safari/537.36" version="25.0.3">
  <diagram name="Page-1" id="9csiGRajn9hbeka8NCRL">
    <mxGraphModel dx="2562" dy="2098" grid="1" gridSize="10" guides="1" tooltips="1" connect="1" arrows="1" fold="1" page="1" pageScale="1" pageWidth="827" pageHeight="1169" math="0" shadow="0">
      <root>
        <mxCell id="0" />
        <mxCell id="1" parent="0" />
        <mxCell id="At3crt5vRcggLfKBgVWZ-295" style="edgeStyle=none;rounded=0;orthogonalLoop=1;jettySize=auto;html=1;exitX=0;exitY=0.25;exitDx=0;exitDy=0;entryX=1;entryY=0.5;entryDx=0;entryDy=0;" parent="1" target="At3crt5vRcggLfKBgVWZ-299" edge="1">
          <mxGeometry relative="1" as="geometry">
            <mxPoint x="150" y="320" as="sourcePoint" />
            <mxPoint x="-10" y="240" as="targetPoint" />
          </mxGeometry>
        </mxCell>
        <mxCell id="At3crt5vRcggLfKBgVWZ-296" style="edgeStyle=none;rounded=0;orthogonalLoop=1;jettySize=auto;html=1;exitX=0;exitY=0.25;exitDx=0;exitDy=0;entryX=1;entryY=0.5;entryDx=0;entryDy=0;" parent="1" target="At3crt5vRcggLfKBgVWZ-300" edge="1">
          <mxGeometry relative="1" as="geometry">
            <mxPoint x="150" y="320" as="sourcePoint" />
            <mxPoint x="-10" y="290" as="targetPoint" />
          </mxGeometry>
        </mxCell>
        <mxCell id="At3crt5vRcggLfKBgVWZ-297" style="edgeStyle=none;rounded=0;orthogonalLoop=1;jettySize=auto;html=1;exitX=0;exitY=0.25;exitDx=0;exitDy=0;entryX=1;entryY=0.5;entryDx=0;entryDy=0;" parent="1" target="At3crt5vRcggLfKBgVWZ-301" edge="1">
          <mxGeometry relative="1" as="geometry">
            <mxPoint x="150" y="320" as="sourcePoint" />
            <mxPoint x="-10" y="340" as="targetPoint" />
          </mxGeometry>
        </mxCell>
        <mxCell id="bd4QD1NhrBbxVst7JC30-13" style="edgeStyle=none;curved=1;rounded=0;orthogonalLoop=1;jettySize=auto;html=1;fontSize=12;startSize=8;endSize=8;" parent="1" source="At3crt5vRcggLfKBgVWZ-298" target="bd4QD1NhrBbxVst7JC30-11" edge="1">
          <mxGeometry relative="1" as="geometry" />
        </mxCell>
        <mxCell id="At3crt5vRcggLfKBgVWZ-298" value="Korisnik" style="rounded=0;whiteSpace=wrap;html=1;" parent="1" vertex="1">
          <mxGeometry x="150" y="300" width="100" height="40" as="geometry" />
        </mxCell>
        <mxCell id="At3crt5vRcggLfKBgVWZ-299" value="ID" style="ellipse;whiteSpace=wrap;html=1;" parent="1" vertex="1">
          <mxGeometry x="-90" y="240" width="80" height="40" as="geometry" />
        </mxCell>
        <mxCell id="At3crt5vRcggLfKBgVWZ-300" value="Korisničko ime" style="ellipse;whiteSpace=wrap;html=1;" parent="1" vertex="1">
          <mxGeometry x="-90" y="290" width="80" height="40" as="geometry" />
        </mxCell>
        <mxCell id="At3crt5vRcggLfKBgVWZ-301" value="Email" style="ellipse;whiteSpace=wrap;html=1;" parent="1" vertex="1">
          <mxGeometry x="-90" y="340" width="80" height="40" as="geometry" />
        </mxCell>
        <mxCell id="bd4QD1NhrBbxVst7JC30-17" style="edgeStyle=none;curved=1;rounded=0;orthogonalLoop=1;jettySize=auto;html=1;fontSize=12;startSize=8;endSize=8;" parent="1" source="At3crt5vRcggLfKBgVWZ-302" target="At3crt5vRcggLfKBgVWZ-356" edge="1">
          <mxGeometry relative="1" as="geometry" />
        </mxCell>
        <mxCell id="bd4QD1NhrBbxVst7JC30-19" style="edgeStyle=none;curved=1;rounded=0;orthogonalLoop=1;jettySize=auto;html=1;entryX=0;entryY=0.5;entryDx=0;entryDy=0;fontSize=12;startSize=8;endSize=8;" parent="1" source="At3crt5vRcggLfKBgVWZ-302" target="At3crt5vRcggLfKBgVWZ-310" edge="1">
          <mxGeometry relative="1" as="geometry" />
        </mxCell>
        <mxCell id="At3crt5vRcggLfKBgVWZ-302" value="ima" style="rhombus;whiteSpace=wrap;html=1;" parent="1" vertex="1">
          <mxGeometry x="280" y="200" width="60" height="50" as="geometry" />
        </mxCell>
        <mxCell id="At3crt5vRcggLfKBgVWZ-306" style="edgeStyle=none;rounded=0;orthogonalLoop=1;jettySize=auto;html=1;exitX=0.5;exitY=0;exitDx=0;exitDy=0;entryX=0.5;entryY=1;entryDx=0;entryDy=0;" parent="1" source="At3crt5vRcggLfKBgVWZ-310" target="At3crt5vRcggLfKBgVWZ-323" edge="1">
          <mxGeometry relative="1" as="geometry" />
        </mxCell>
        <mxCell id="At3crt5vRcggLfKBgVWZ-307" style="edgeStyle=none;rounded=0;orthogonalLoop=1;jettySize=auto;html=1;exitX=0.5;exitY=0;exitDx=0;exitDy=0;entryX=0.5;entryY=1;entryDx=0;entryDy=0;" parent="1" source="At3crt5vRcggLfKBgVWZ-310" target="At3crt5vRcggLfKBgVWZ-324" edge="1">
          <mxGeometry relative="1" as="geometry" />
        </mxCell>
        <mxCell id="At3crt5vRcggLfKBgVWZ-308" style="edgeStyle=none;rounded=0;orthogonalLoop=1;jettySize=auto;html=1;exitX=0.5;exitY=0;exitDx=0;exitDy=0;entryX=0.5;entryY=1;entryDx=0;entryDy=0;" parent="1" source="At3crt5vRcggLfKBgVWZ-310" target="At3crt5vRcggLfKBgVWZ-325" edge="1">
          <mxGeometry relative="1" as="geometry" />
        </mxCell>
        <mxCell id="bd4QD1NhrBbxVst7JC30-2" style="edgeStyle=none;curved=1;rounded=0;orthogonalLoop=1;jettySize=auto;html=1;exitX=0.5;exitY=0;exitDx=0;exitDy=0;entryX=0.5;entryY=1;entryDx=0;entryDy=0;fontSize=12;startSize=8;endSize=8;" parent="1" source="At3crt5vRcggLfKBgVWZ-310" target="bd4QD1NhrBbxVst7JC30-1" edge="1">
          <mxGeometry relative="1" as="geometry" />
        </mxCell>
        <mxCell id="At3crt5vRcggLfKBgVWZ-310" value="Narudžba vožnje" style="rounded=0;whiteSpace=wrap;html=1;" parent="1" vertex="1">
          <mxGeometry x="470" y="300" width="100" height="40" as="geometry" />
        </mxCell>
        <mxCell id="At3crt5vRcggLfKBgVWZ-312" style="edgeStyle=none;rounded=0;orthogonalLoop=1;jettySize=auto;html=1;exitX=0.5;exitY=1;exitDx=0;exitDy=0;entryX=0.5;entryY=0;entryDx=0;entryDy=0;" parent="1" source="At3crt5vRcggLfKBgVWZ-314" target="At3crt5vRcggLfKBgVWZ-321" edge="1">
          <mxGeometry relative="1" as="geometry" />
        </mxCell>
        <mxCell id="At3crt5vRcggLfKBgVWZ-313" style="edgeStyle=none;rounded=0;orthogonalLoop=1;jettySize=auto;html=1;exitX=0.5;exitY=1;exitDx=0;exitDy=0;entryX=0.5;entryY=0;entryDx=0;entryDy=0;" parent="1" source="At3crt5vRcggLfKBgVWZ-314" target="At3crt5vRcggLfKBgVWZ-322" edge="1">
          <mxGeometry relative="1" as="geometry" />
        </mxCell>
        <mxCell id="bd4QD1NhrBbxVst7JC30-4" style="edgeStyle=none;curved=1;rounded=0;orthogonalLoop=1;jettySize=auto;html=1;fontSize=12;startSize=8;endSize=8;exitX=0.5;exitY=1;exitDx=0;exitDy=0;" parent="1" source="At3crt5vRcggLfKBgVWZ-314" target="bd4QD1NhrBbxVst7JC30-3" edge="1">
          <mxGeometry relative="1" as="geometry" />
        </mxCell>
        <mxCell id="bd4QD1NhrBbxVst7JC30-8" style="edgeStyle=none;curved=1;rounded=0;orthogonalLoop=1;jettySize=auto;html=1;exitX=0.5;exitY=1;exitDx=0;exitDy=0;fontSize=12;startSize=8;endSize=8;" parent="1" source="At3crt5vRcggLfKBgVWZ-314" target="bd4QD1NhrBbxVst7JC30-5" edge="1">
          <mxGeometry relative="1" as="geometry" />
        </mxCell>
        <mxCell id="At3crt5vRcggLfKBgVWZ-314" value="Dispečer" style="rounded=0;whiteSpace=wrap;html=1;" parent="1" vertex="1">
          <mxGeometry x="320" y="420" width="100" height="40" as="geometry" />
        </mxCell>
        <mxCell id="At3crt5vRcggLfKBgVWZ-315" value="Ima" style="rhombus;whiteSpace=wrap;html=1;" parent="1" vertex="1">
          <mxGeometry x="495" y="390" width="50" height="50" as="geometry" />
        </mxCell>
        <mxCell id="At3crt5vRcggLfKBgVWZ-316" value="" style="endArrow=none;html=1;rounded=0;exitX=0.5;exitY=1;exitDx=0;exitDy=0;entryX=0.5;entryY=0;entryDx=0;entryDy=0;" parent="1" source="At3crt5vRcggLfKBgVWZ-310" target="At3crt5vRcggLfKBgVWZ-315" edge="1">
          <mxGeometry width="50" height="50" relative="1" as="geometry">
            <mxPoint x="600" y="410" as="sourcePoint" />
            <mxPoint x="650" y="360" as="targetPoint" />
          </mxGeometry>
        </mxCell>
        <mxCell id="At3crt5vRcggLfKBgVWZ-317" value="" style="endArrow=none;html=1;rounded=0;exitX=0.5;exitY=1;exitDx=0;exitDy=0;" parent="1" source="At3crt5vRcggLfKBgVWZ-315" target="At3crt5vRcggLfKBgVWZ-314" edge="1">
          <mxGeometry width="50" height="50" relative="1" as="geometry">
            <mxPoint x="600" y="410" as="sourcePoint" />
            <mxPoint x="650" y="360" as="targetPoint" />
          </mxGeometry>
        </mxCell>
        <mxCell id="At3crt5vRcggLfKBgVWZ-318" value="M" style="text;html=1;strokeColor=none;fillColor=none;align=center;verticalAlign=middle;whiteSpace=wrap;rounded=0;" parent="1" vertex="1">
          <mxGeometry x="425" y="415" width="40" height="20" as="geometry" />
        </mxCell>
        <mxCell id="At3crt5vRcggLfKBgVWZ-319" value="N" style="text;html=1;strokeColor=none;fillColor=none;align=center;verticalAlign=middle;whiteSpace=wrap;rounded=0;" parent="1" vertex="1">
          <mxGeometry x="510" y="340" width="40" height="20" as="geometry" />
        </mxCell>
        <mxCell id="At3crt5vRcggLfKBgVWZ-321" value="Sifra" style="ellipse;whiteSpace=wrap;html=1;" parent="1" vertex="1">
          <mxGeometry x="280" y="530" width="80" height="36" as="geometry" />
        </mxCell>
        <mxCell id="At3crt5vRcggLfKBgVWZ-322" value="Naziv" style="ellipse;whiteSpace=wrap;html=1;" parent="1" vertex="1">
          <mxGeometry x="170" y="510" width="80" height="36" as="geometry" />
        </mxCell>
        <mxCell id="At3crt5vRcggLfKBgVWZ-323" value="ID" style="ellipse;whiteSpace=wrap;html=1;" parent="1" vertex="1">
          <mxGeometry x="360" y="170" width="80" height="40" as="geometry" />
        </mxCell>
        <mxCell id="At3crt5vRcggLfKBgVWZ-324" value="Datum i vrijeme narudžbe" style="ellipse;whiteSpace=wrap;html=1;" parent="1" vertex="1">
          <mxGeometry x="450" y="150" width="80" height="50" as="geometry" />
        </mxCell>
        <mxCell id="At3crt5vRcggLfKBgVWZ-325" value="Lokacija odredišta" style="ellipse;whiteSpace=wrap;html=1;" parent="1" vertex="1">
          <mxGeometry x="590" y="205" width="80" height="40" as="geometry" />
        </mxCell>
        <mxCell id="bd4QD1NhrBbxVst7JC30-10" style="edgeStyle=none;curved=1;rounded=0;orthogonalLoop=1;jettySize=auto;html=1;fontSize=12;startSize=8;endSize=8;" parent="1" source="At3crt5vRcggLfKBgVWZ-356" target="bd4QD1NhrBbxVst7JC30-9" edge="1">
          <mxGeometry relative="1" as="geometry" />
        </mxCell>
        <mxCell id="At3crt5vRcggLfKBgVWZ-356" value="Prijava" style="rounded=0;whiteSpace=wrap;html=1;" parent="1" vertex="1">
          <mxGeometry x="140" y="100" width="100" height="40" as="geometry" />
        </mxCell>
        <mxCell id="At3crt5vRcggLfKBgVWZ-366" style="edgeStyle=none;rounded=0;orthogonalLoop=1;jettySize=auto;html=1;entryX=0.5;entryY=1;entryDx=0;entryDy=0;exitX=0.5;exitY=0;exitDx=0;exitDy=0;" parent="1" source="At3crt5vRcggLfKBgVWZ-356" target="At3crt5vRcggLfKBgVWZ-367" edge="1">
          <mxGeometry relative="1" as="geometry">
            <mxPoint x="170" y="100" as="sourcePoint" />
          </mxGeometry>
        </mxCell>
        <mxCell id="At3crt5vRcggLfKBgVWZ-367" value="Sifra" style="ellipse;whiteSpace=wrap;html=1;" parent="1" vertex="1">
          <mxGeometry x="90" y="5" width="80" height="40" as="geometry" />
        </mxCell>
        <mxCell id="At3crt5vRcggLfKBgVWZ-368" style="edgeStyle=none;rounded=0;orthogonalLoop=1;jettySize=auto;html=1;entryX=0.5;entryY=1;entryDx=0;entryDy=0;" parent="1" target="At3crt5vRcggLfKBgVWZ-369" edge="1">
          <mxGeometry relative="1" as="geometry">
            <mxPoint x="190" y="100" as="sourcePoint" />
          </mxGeometry>
        </mxCell>
        <mxCell id="At3crt5vRcggLfKBgVWZ-369" value="Datum prijave" style="ellipse;whiteSpace=wrap;html=1;" parent="1" vertex="1">
          <mxGeometry x="200" y="5" width="80" height="40" as="geometry" />
        </mxCell>
        <mxCell id="bd4QD1NhrBbxVst7JC30-1" value="Lokacija preuzimanja" style="ellipse;whiteSpace=wrap;html=1;" parent="1" vertex="1">
          <mxGeometry x="540" y="160" width="80" height="40" as="geometry" />
        </mxCell>
        <mxCell id="bd4QD1NhrBbxVst7JC30-3" value="Adresa" style="ellipse;whiteSpace=wrap;html=1;" parent="1" vertex="1">
          <mxGeometry x="365" y="520" width="80" height="36" as="geometry" />
        </mxCell>
        <mxCell id="bd4QD1NhrBbxVst7JC30-5" value="Kontakt informacije" style="ellipse;whiteSpace=wrap;html=1;" parent="1" vertex="1">
          <mxGeometry x="450" y="494" width="80" height="36" as="geometry" />
        </mxCell>
        <mxCell id="bd4QD1NhrBbxVst7JC30-9" value="Status" style="ellipse;whiteSpace=wrap;html=1;" parent="1" vertex="1">
          <mxGeometry x="150" y="-60" width="80" height="36" as="geometry" />
        </mxCell>
        <mxCell id="bd4QD1NhrBbxVst7JC30-14" style="edgeStyle=none;curved=1;rounded=0;orthogonalLoop=1;jettySize=auto;html=1;fontSize=12;startSize=8;endSize=8;" parent="1" source="bd4QD1NhrBbxVst7JC30-11" target="At3crt5vRcggLfKBgVWZ-356" edge="1">
          <mxGeometry relative="1" as="geometry" />
        </mxCell>
        <mxCell id="bd4QD1NhrBbxVst7JC30-11" value="ima" style="rhombus;whiteSpace=wrap;html=1;" parent="1" vertex="1">
          <mxGeometry x="160" y="200" width="60" height="50" as="geometry" />
        </mxCell>
        <mxCell id="bd4QD1NhrBbxVst7JC30-15" value="1" style="text;html=1;strokeColor=none;fillColor=none;align=center;verticalAlign=middle;whiteSpace=wrap;rounded=0;" parent="1" vertex="1">
          <mxGeometry x="190" y="270" width="40" height="20" as="geometry" />
        </mxCell>
        <mxCell id="bd4QD1NhrBbxVst7JC30-16" value="N" style="text;html=1;strokeColor=none;fillColor=none;align=center;verticalAlign=middle;whiteSpace=wrap;rounded=0;" parent="1" vertex="1">
          <mxGeometry x="190" y="160" width="40" height="20" as="geometry" />
        </mxCell>
        <mxCell id="bd4QD1NhrBbxVst7JC30-20" value="1" style="text;html=1;strokeColor=none;fillColor=none;align=center;verticalAlign=middle;whiteSpace=wrap;rounded=0;" parent="1" vertex="1">
          <mxGeometry x="430" y="320" width="40" height="20" as="geometry" />
        </mxCell>
        <mxCell id="bd4QD1NhrBbxVst7JC30-23" value="N" style="text;html=1;strokeColor=none;fillColor=none;align=center;verticalAlign=middle;whiteSpace=wrap;rounded=0;" parent="1" vertex="1">
          <mxGeometry x="240" y="150" width="40" height="20" as="geometry" />
        </mxCell>
        <mxCell id="QHX9UtihQ948VUf21oeG-1" value="Kontakt info" style="ellipse;whiteSpace=wrap;html=1;" parent="1" vertex="1">
          <mxGeometry x="-90" y="395" width="80" height="40" as="geometry" />
        </mxCell>
        <mxCell id="QHX9UtihQ948VUf21oeG-2" style="edgeStyle=none;rounded=0;orthogonalLoop=1;jettySize=auto;html=1;exitX=0;exitY=0.5;exitDx=0;exitDy=0;entryX=1;entryY=0.5;entryDx=0;entryDy=0;" parent="1" source="At3crt5vRcggLfKBgVWZ-298" target="QHX9UtihQ948VUf21oeG-1" edge="1">
          <mxGeometry relative="1" as="geometry">
            <mxPoint x="110" y="390" as="sourcePoint" />
            <mxPoint x="-50" y="430" as="targetPoint" />
          </mxGeometry>
        </mxCell>
        <mxCell id="QWsyMNmAUbbkgw3MHMnf-2" value="Vozač" style="rounded=0;whiteSpace=wrap;html=1;" parent="1" vertex="1">
          <mxGeometry x="510" y="-40" width="100" height="40" as="geometry" />
        </mxCell>
        <mxCell id="QWsyMNmAUbbkgw3MHMnf-3" value="Vozilo" style="rounded=0;whiteSpace=wrap;html=1;" parent="1" vertex="1">
          <mxGeometry x="180" y="-190" width="100" height="40" as="geometry" />
        </mxCell>
        <mxCell id="NisioEs9cOr_ZbT0-l4L-1" value="ima" style="rhombus;whiteSpace=wrap;html=1;" vertex="1" parent="1">
          <mxGeometry x="380" y="20" width="70" height="50" as="geometry" />
        </mxCell>
        <mxCell id="NisioEs9cOr_ZbT0-l4L-3" style="edgeStyle=none;curved=1;rounded=0;orthogonalLoop=1;jettySize=auto;html=1;fontSize=12;startSize=8;endSize=8;exitX=0;exitY=0.5;exitDx=0;exitDy=0;entryX=1;entryY=0.5;entryDx=0;entryDy=0;" edge="1" parent="1" source="QWsyMNmAUbbkgw3MHMnf-2" target="NisioEs9cOr_ZbT0-l4L-1">
          <mxGeometry relative="1" as="geometry">
            <mxPoint x="400" y="-20" as="sourcePoint" />
            <mxPoint x="394" y="-72" as="targetPoint" />
          </mxGeometry>
        </mxCell>
        <mxCell id="NisioEs9cOr_ZbT0-l4L-4" style="edgeStyle=none;curved=1;rounded=0;orthogonalLoop=1;jettySize=auto;html=1;fontSize=12;startSize=8;endSize=8;entryX=1;entryY=0.5;entryDx=0;entryDy=0;exitX=0;exitY=0.5;exitDx=0;exitDy=0;" edge="1" parent="1" source="NisioEs9cOr_ZbT0-l4L-1" target="At3crt5vRcggLfKBgVWZ-356">
          <mxGeometry relative="1" as="geometry">
            <mxPoint x="320" y="70" as="sourcePoint" />
            <mxPoint x="238" y="-2" as="targetPoint" />
          </mxGeometry>
        </mxCell>
        <mxCell id="NisioEs9cOr_ZbT0-l4L-5" value="1" style="text;html=1;strokeColor=none;fillColor=none;align=center;verticalAlign=middle;whiteSpace=wrap;rounded=0;" vertex="1" parent="1">
          <mxGeometry x="480" y="20" width="50" height="20" as="geometry" />
        </mxCell>
        <mxCell id="NisioEs9cOr_ZbT0-l4L-6" value="N" style="text;html=1;strokeColor=none;fillColor=none;align=center;verticalAlign=middle;whiteSpace=wrap;rounded=0;" vertex="1" parent="1">
          <mxGeometry x="240" y="80" width="40" height="20" as="geometry" />
        </mxCell>
        <mxCell id="NisioEs9cOr_ZbT0-l4L-7" value="ID" style="ellipse;whiteSpace=wrap;html=1;" vertex="1" parent="1">
          <mxGeometry x="365" y="-170" width="80" height="40" as="geometry" />
        </mxCell>
        <mxCell id="NisioEs9cOr_ZbT0-l4L-8" value="Ime" style="ellipse;whiteSpace=wrap;html=1;" vertex="1" parent="1">
          <mxGeometry x="465" y="-220" width="80" height="40" as="geometry" />
        </mxCell>
        <mxCell id="NisioEs9cOr_ZbT0-l4L-9" value="Prezime" style="ellipse;whiteSpace=wrap;html=1;" vertex="1" parent="1">
          <mxGeometry x="570" y="-220" width="80" height="40" as="geometry" />
        </mxCell>
        <mxCell id="NisioEs9cOr_ZbT0-l4L-10" value="&lt;div&gt;Broj telefona&lt;/div&gt;" style="ellipse;whiteSpace=wrap;html=1;" vertex="1" parent="1">
          <mxGeometry x="680" y="-220" width="80" height="40" as="geometry" />
        </mxCell>
        <mxCell id="NisioEs9cOr_ZbT0-l4L-12" value="Broj registracije" style="ellipse;whiteSpace=wrap;html=1;" vertex="1" parent="1">
          <mxGeometry x="110" y="-360" width="80" height="40" as="geometry" />
        </mxCell>
        <mxCell id="NisioEs9cOr_ZbT0-l4L-13" value="Status" style="ellipse;whiteSpace=wrap;html=1;" vertex="1" parent="1">
          <mxGeometry x="720" y="-130" width="80" height="40" as="geometry" />
        </mxCell>
        <mxCell id="NisioEs9cOr_ZbT0-l4L-15" style="edgeStyle=none;rounded=0;orthogonalLoop=1;jettySize=auto;html=1;entryX=0.5;entryY=1;entryDx=0;entryDy=0;exitX=0.5;exitY=0;exitDx=0;exitDy=0;" edge="1" parent="1" source="QWsyMNmAUbbkgw3MHMnf-2" target="NisioEs9cOr_ZbT0-l4L-8">
          <mxGeometry relative="1" as="geometry">
            <mxPoint x="520" y="-110" as="sourcePoint" />
            <mxPoint x="460" y="-165" as="targetPoint" />
          </mxGeometry>
        </mxCell>
        <mxCell id="NisioEs9cOr_ZbT0-l4L-16" style="edgeStyle=none;rounded=0;orthogonalLoop=1;jettySize=auto;html=1;entryX=0.5;entryY=1;entryDx=0;entryDy=0;exitX=0.5;exitY=0;exitDx=0;exitDy=0;" edge="1" parent="1" source="QWsyMNmAUbbkgw3MHMnf-2" target="NisioEs9cOr_ZbT0-l4L-7">
          <mxGeometry relative="1" as="geometry">
            <mxPoint x="480" y="-90" as="sourcePoint" />
            <mxPoint x="420" y="-145" as="targetPoint" />
          </mxGeometry>
        </mxCell>
        <mxCell id="NisioEs9cOr_ZbT0-l4L-17" style="edgeStyle=none;rounded=0;orthogonalLoop=1;jettySize=auto;html=1;entryX=0.5;entryY=1;entryDx=0;entryDy=0;" edge="1" parent="1" target="NisioEs9cOr_ZbT0-l4L-9">
          <mxGeometry relative="1" as="geometry">
            <mxPoint x="560" y="-40" as="sourcePoint" />
            <mxPoint x="530" y="-145" as="targetPoint" />
          </mxGeometry>
        </mxCell>
        <mxCell id="NisioEs9cOr_ZbT0-l4L-18" style="edgeStyle=none;rounded=0;orthogonalLoop=1;jettySize=auto;html=1;entryX=0.5;entryY=1;entryDx=0;entryDy=0;" edge="1" parent="1" target="NisioEs9cOr_ZbT0-l4L-10">
          <mxGeometry relative="1" as="geometry">
            <mxPoint x="560" y="-40" as="sourcePoint" />
            <mxPoint x="570" y="-185" as="targetPoint" />
          </mxGeometry>
        </mxCell>
        <mxCell id="NisioEs9cOr_ZbT0-l4L-20" style="edgeStyle=none;rounded=0;orthogonalLoop=1;jettySize=auto;html=1;entryX=0.5;entryY=1;entryDx=0;entryDy=0;exitX=0.5;exitY=0;exitDx=0;exitDy=0;" edge="1" parent="1" source="QWsyMNmAUbbkgw3MHMnf-2" target="NisioEs9cOr_ZbT0-l4L-13">
          <mxGeometry relative="1" as="geometry">
            <mxPoint x="700" y="-40" as="sourcePoint" />
            <mxPoint x="640" y="-95" as="targetPoint" />
          </mxGeometry>
        </mxCell>
        <mxCell id="NisioEs9cOr_ZbT0-l4L-28" value="Status" style="ellipse;whiteSpace=wrap;html=1;" vertex="1" parent="1">
          <mxGeometry x="650" y="260" width="80" height="40" as="geometry" />
        </mxCell>
        <mxCell id="NisioEs9cOr_ZbT0-l4L-29" style="edgeStyle=none;rounded=0;orthogonalLoop=1;jettySize=auto;html=1;exitX=0.5;exitY=0;exitDx=0;exitDy=0;entryX=0;entryY=0.5;entryDx=0;entryDy=0;" edge="1" parent="1" source="At3crt5vRcggLfKBgVWZ-310" target="NisioEs9cOr_ZbT0-l4L-28">
          <mxGeometry relative="1" as="geometry">
            <mxPoint x="630" y="360" as="sourcePoint" />
            <mxPoint x="740" y="305" as="targetPoint" />
          </mxGeometry>
        </mxCell>
        <mxCell id="NisioEs9cOr_ZbT0-l4L-32" value="ID" style="ellipse;whiteSpace=wrap;html=1;" vertex="1" parent="1">
          <mxGeometry x="20" y="-310" width="80" height="40" as="geometry" />
        </mxCell>
        <mxCell id="NisioEs9cOr_ZbT0-l4L-33" value="Model" style="ellipse;whiteSpace=wrap;html=1;" vertex="1" parent="1">
          <mxGeometry x="220" y="-360" width="80" height="40" as="geometry" />
        </mxCell>
        <mxCell id="NisioEs9cOr_ZbT0-l4L-36" value="Kapacitet" style="ellipse;whiteSpace=wrap;html=1;" vertex="1" parent="1">
          <mxGeometry x="310" y="-330" width="80" height="40" as="geometry" />
        </mxCell>
        <mxCell id="NisioEs9cOr_ZbT0-l4L-37" value="1" style="text;html=1;strokeColor=none;fillColor=none;align=center;verticalAlign=middle;whiteSpace=wrap;rounded=0;" vertex="1" parent="1">
          <mxGeometry x="440" y="-30" width="50" height="20" as="geometry" />
        </mxCell>
        <mxCell id="NisioEs9cOr_ZbT0-l4L-38" value="1" style="text;html=1;strokeColor=none;fillColor=none;align=center;verticalAlign=middle;whiteSpace=wrap;rounded=0;" vertex="1" parent="1">
          <mxGeometry x="215" y="-130" width="50" height="20" as="geometry" />
        </mxCell>
        <mxCell id="NisioEs9cOr_ZbT0-l4L-39" style="edgeStyle=none;rounded=0;orthogonalLoop=1;jettySize=auto;html=1;entryX=0.5;entryY=1;entryDx=0;entryDy=0;exitX=0.5;exitY=0;exitDx=0;exitDy=0;" edge="1" parent="1" source="QWsyMNmAUbbkgw3MHMnf-3" target="NisioEs9cOr_ZbT0-l4L-32">
          <mxGeometry relative="1" as="geometry">
            <mxPoint x="120" y="-230" as="sourcePoint" />
            <mxPoint x="-35" y="-320" as="targetPoint" />
          </mxGeometry>
        </mxCell>
        <mxCell id="NisioEs9cOr_ZbT0-l4L-40" style="edgeStyle=none;rounded=0;orthogonalLoop=1;jettySize=auto;html=1;entryX=0.5;entryY=1;entryDx=0;entryDy=0;exitX=0.5;exitY=0;exitDx=0;exitDy=0;" edge="1" parent="1" source="QWsyMNmAUbbkgw3MHMnf-3" target="NisioEs9cOr_ZbT0-l4L-12">
          <mxGeometry relative="1" as="geometry">
            <mxPoint x="190" y="-260" as="sourcePoint" />
            <mxPoint x="35" y="-350" as="targetPoint" />
          </mxGeometry>
        </mxCell>
        <mxCell id="NisioEs9cOr_ZbT0-l4L-41" style="edgeStyle=none;rounded=0;orthogonalLoop=1;jettySize=auto;html=1;entryX=0.5;entryY=1;entryDx=0;entryDy=0;exitX=0.5;exitY=0;exitDx=0;exitDy=0;" edge="1" parent="1" source="QWsyMNmAUbbkgw3MHMnf-3" target="NisioEs9cOr_ZbT0-l4L-33">
          <mxGeometry relative="1" as="geometry">
            <mxPoint x="230" y="-280" as="sourcePoint" />
            <mxPoint x="75" y="-370" as="targetPoint" />
          </mxGeometry>
        </mxCell>
        <mxCell id="NisioEs9cOr_ZbT0-l4L-42" style="edgeStyle=none;rounded=0;orthogonalLoop=1;jettySize=auto;html=1;entryX=0.5;entryY=1;entryDx=0;entryDy=0;exitX=0.5;exitY=0;exitDx=0;exitDy=0;" edge="1" parent="1" source="QWsyMNmAUbbkgw3MHMnf-3" target="NisioEs9cOr_ZbT0-l4L-36">
          <mxGeometry relative="1" as="geometry">
            <mxPoint x="280" y="-230" as="sourcePoint" />
            <mxPoint x="125" y="-320" as="targetPoint" />
          </mxGeometry>
        </mxCell>
        <mxCell id="NisioEs9cOr_ZbT0-l4L-43" value="ima" style="rhombus;whiteSpace=wrap;html=1;" vertex="1" parent="1">
          <mxGeometry x="320" y="-90" width="70" height="50" as="geometry" />
        </mxCell>
        <mxCell id="NisioEs9cOr_ZbT0-l4L-46" style="edgeStyle=none;curved=1;rounded=0;orthogonalLoop=1;jettySize=auto;html=1;fontSize=12;startSize=8;endSize=8;entryX=1;entryY=0.5;entryDx=0;entryDy=0;" edge="1" parent="1" target="NisioEs9cOr_ZbT0-l4L-43">
          <mxGeometry relative="1" as="geometry">
            <mxPoint x="510" y="-20" as="sourcePoint" />
            <mxPoint x="380" y="15" as="targetPoint" />
          </mxGeometry>
        </mxCell>
        <mxCell id="NisioEs9cOr_ZbT0-l4L-47" style="edgeStyle=none;curved=1;rounded=0;orthogonalLoop=1;jettySize=auto;html=1;fontSize=12;startSize=8;endSize=8;exitX=0;exitY=0.5;exitDx=0;exitDy=0;entryX=0.5;entryY=1;entryDx=0;entryDy=0;" edge="1" parent="1" source="NisioEs9cOr_ZbT0-l4L-43" target="QWsyMNmAUbbkgw3MHMnf-3">
          <mxGeometry relative="1" as="geometry">
            <mxPoint x="300" y="-110" as="sourcePoint" />
            <mxPoint x="240" y="-45" as="targetPoint" />
          </mxGeometry>
        </mxCell>
      </root>
    </mxGraphModel>
  </diagram>
</mxfile>
